<?xml version="1.0" encoding="UTF-8"?>
<svg id="Layer_1" xmlns="http://www.w3.org/2000/svg" version="1.1" viewBox="0 0 532.26 312.83">
  <!-- Generator: Adobe Illustrator 30.2.1, SVG Export Plug-In . SVG Version: 2.1.1 Build 1)  -->
  <defs>
    <style>
      .st0, .st1, .st2 {
        isolation: isolate;
      }

      .st3 {
        fill: #bcbec0;
        stroke-width: 11px;
      }

      .st3, .st4, .st1, .st2 {
        stroke: #000;
        stroke-miterlimit: 10;
      }

      .st5 {
        font-family: PublicoText-Italic, 'Publico Text';
        font-size: 47.84px;
        font-style: italic;
      }

      .st4 {
        fill: none;
        stroke-width: 10px;
      }

      .st1 {
        font-size: 86.62px;
        stroke-width: 2px;
      }

      .st1, .st2 {
        fill: #231f20;
        font-family: Noteworthy-Light, Noteworthy;
        font-weight: 300;
      }

      .st2 {
        font-size: 91.54px;
      }
    </style>
  </defs>
  <path class="st3" d="M492.57,187.21c-24.61,65.21-109.1,92.2-228.84,92.2S41.07,246.16,38.67,175.56C36.27,104.53,134.03-2.75,263.73,45.47c140.07,52.07,241.44,108.32,228.84,141.74h0Z"/>
  <path class="st4" d="M318.87,115.04c4.26-8.98,21.91-9.92,40.74-4.17,18.83,5.75,30.57,17.67,26.32,26.66"/>
  <path d="M239.37,94.44c3.02-6.52,12.39-4.02,17.78-3.22,12.85,2.57,25.25,6.51,37.62,10.51,32.61,10.87,64.7,23.07,95.99,37.24,11.67,5.4,23.35,10.91,34.29,17.71,2.7,1.75,5.44,3.51,7.67,5.86.68.78,1.54,1.75,1.2,2.84.61-2.85-7.01-6.79-9.19-8.16-26.4-14.05-54.9-23.75-83.14-33.37-24.3-7.93-48.77-15.55-73.67-21.11-6.8-1.32-13.81-3.1-20.63-2.76-.29.04-.55.11-.47.11.18-.03.39-.18.55-.27.3-.2.94-.75,1.27-1.6,0,0-9.27-3.76-9.27-3.76h0Z"/>
  <g class="st0">
    <g class="st0">
      <text class="st2" transform="translate(96.73 164.49) scale(.85 1)"><tspan x="0" y="0">AI</tspan></text>
    </g>
  </g>
  <g class="st0">
    <g class="st0">
      <text class="st1" transform="translate(136.7 243.02) scale(.63 1)"><tspan x="0" y="0">Kodning</tspan></text>
    </g>
  </g>
  <text class="st5" transform="translate(159.18 176.37)"><tspan x="0" y="0">\</tspan></text>
</svg>